<?xml version="1.0" encoding="UTF-8"?>
<svg id="Layer_2" data-name="Layer 2" xmlns="http://www.w3.org/2000/svg" viewBox="0 0 256 256">
  <defs>
    <style>
      .cls-1 {
        fill: #fff;
      }
    </style>
  </defs>
  <g id="New_logo" data-name="New logo">
    <g>
      <path class="cls-1" d="M91.94,124.14c-8.03,0-13.98,5.95-13.98,13.98s5.95,13.89,13.98,13.89,13.98-5.86,13.98-13.89-5.95-13.98-13.98-13.98Z"/>
      <path class="cls-1" d="M206.6,107.42h-10.28v46.44l10.28-.1c7.42,0,13.13-2,17.04-6,4-4,5.9-9.61,5.9-16.94s-2-13.13-5.9-17.23c-4-4.09-9.61-6.19-17.04-6.19Z"/>
      <path class="cls-1" d="M148.98,108.11c-11.27,0-20.59,9.7-20.59,21.98s9.33,21.98,20.59,21.98,20.59-9.97,20.59-21.98c-.28-12.56-9.33-21.98-20.59-21.98Z"/>
      <path class="cls-1" d="M64,0C28.65,0,0,28.65,0,64v192h192c35.35,0,64-28.65,64-64V0H64ZM57.6,155.26c1.09-1.04,2.07-2.19,2.94-3.44-.87,1.25-1.84,2.4-2.94,3.44ZM64.97,137.57c0,13.68-10.31,23.71-23.52,23.71-11.71,0-21.19-7.95-22.96-19.21-.15-.96-.56-3.84-.56-3.84l9.78.09.56,2.72c1.31,6.56,6.75,10.88,13.6,10.88,7.86,0,13.71-5.92,13.87-13.73.17-7.87-6.46-14.21-14.32-14.21h-11.46l14.35-15.45h-22.35v-9.93h46.01l-17.15,17.43c8.43,3.56,14.15,11.81,14.15,21.55ZM92.03,161.51c-13.6,0-23.71-10.2-23.71-23.71,0-5.29,1.7-10.39,4.82-14.45l18.8-24.75h12.09l-11.81,15.59c13.51.09,23.62,10.2,23.62,23.71s-10.2,23.62-23.8,23.62ZM148.98,161.57c-16.71,0-30.1-14.13-30.1-31.49s13.67-31.49,30.1-31.49,30.1,13.94,30.1,31.49c-.28,17.36-13.39,31.49-30.1,31.49ZM236.34,146.93c-2.74,4.73-6.62,8.32-11.73,10.88-5.01,2.46-10.88,3.69-17.59,3.69h-20.62v-62.9h20.62c6.72,0,12.58,1.32,17.59,3.88,5.11,2.55,8.99,6.24,11.73,11.07,2.74,4.73,4.16,10.31,4.16,16.74s-1.42,11.92-4.16,16.65Z"/>
    </g>
  </g>
</svg>